<?xml version="1.0" standalone="no"?>
<!DOCTYPE svg PUBLIC "-//W3C//DTD SVG 20010904//EN"
 "http://www.w3.org/TR/2001/REC-SVG-20010904/DTD/svg10.dtd">
<svg version="1.0" xmlns="http://www.w3.org/2000/svg"
 width="260.000000pt" height="260.000000pt" viewBox="0 0 260.000000 260.000000"
 preserveAspectRatio="xMidYMid meet">
<metadata>
Created by potrace 1.11, written by Peter Selinger 2001-2013
</metadata>
<g transform="translate(0.000000,260.000000) scale(0.100000,-0.100000)"
fill="#000000" stroke="none">
<path d="M0 1300 l0 -1300 1300 0 1300 0 0 1300 0 1300 -1300 0 -1300 0 0
-1300z m935 823 l45 -48 -377 -372 -378 -372 375 -375 375 -376 -48 -47 -47
-48 -423 423 -422 423 425 419 c234 231 426 419 427 420 1 0 22 -21 48 -47z
m1210 -398 c214 -209 392 -383 393 -388 2 -4 -184 -198 -414 -432 l-418 -425
-43 42 c-24 23 -43 46 -43 51 0 5 164 177 365 382 201 205 365 375 365 378 0
2 -168 168 -372 368 -205 200 -373 367 -373 371 0 4 17 28 39 53 l38 47 36
-34 c20 -18 212 -204 427 -413z m-777 51 c15 -8 37 -25 50 -39 l23 -25 92 35
c50 18 96 32 102 29 16 -6 40 -85 29 -95 -5 -4 -44 -20 -87 -36 -47 -16 -76
-32 -73 -39 3 -6 12 -35 21 -64 13 -41 21 -52 33 -48 29 8 202 29 206 25 2 -2
6 -26 8 -54 l3 -50 -107 -14 -108 -14 0 -77 0 -77 99 -18 c55 -10 105 -21 111
-25 7 -5 7 -21 0 -57 l-11 -50 -109 22 -108 22 -12 -45 c-12 -50 -15 -46 79
-144 32 -33 51 -61 46 -65 -6 -5 -24 -21 -41 -36 l-31 -28 -58 60 -58 61 -23
-31 c-79 -107 -196 -113 -283 -14 l-34 39 -54 -57 -54 -57 -40 32 c-21 17 -39
33 -39 36 0 2 31 37 69 78 l68 73 -10 46 c-12 53 -12 53 -139 26 l-87 -18 -11
50 c-6 27 -9 52 -7 54 2 2 52 13 110 25 l107 23 0 75 0 76 -107 14 -108 15 3
50 c2 28 6 52 8 54 4 4 176 -17 204 -25 12 -3 19 8 27 38 7 24 14 50 18 59 5
14 -11 23 -85 49 -50 18 -93 37 -96 42 -6 9 13 78 25 91 4 4 50 -8 102 -28 97
-36 129 -42 129 -25 0 6 21 24 47 40 53 34 115 40 161 16z"/>
</g>
</svg>
